<svg xmlns="http://www.w3.org/2000/svg" viewBox="0 0 256 256" role="img" aria-label="Looksmith">
  <defs>
    <linearGradient id="bg" x1="22" y1="12" x2="230" y2="242"><stop stop-color="#e49a79"/><stop offset=".52" stop-color="#cc785c"/><stop offset="1" stop-color="#8f4337"/></linearGradient>
    <linearGradient id="metal" x1="66" y1="64" x2="188" y2="194"><stop stop-color="#fff8ec"/><stop offset=".25" stop-color="#b7a99c"/><stop offset=".54" stop-color="#514a48"/><stop offset=".78" stop-color="#e6dbcb"/><stop offset="1" stop-color="#71645f"/></linearGradient>
    <radialGradient id="lens" cx="36%" cy="29%"><stop stop-color="#baf8ff"/><stop offset=".18" stop-color="#5ee7ff"/><stop offset=".42" stop-color="#426fb4"/><stop offset=".72" stop-color="#221f45"/><stop offset="1" stop-color="#090a12"/></radialGradient>
    <linearGradient id="glass" x1="84" y1="77" x2="175" y2="179"><stop stop-color="#fff" stop-opacity=".42"/><stop offset=".4" stop-color="#fff" stop-opacity="0"/></linearGradient>
    <filter id="shadow" x="-50%" y="-50%" width="200%" height="220%"><feDropShadow dx="0" dy="15" stdDeviation="13" flood-color="#34140e" flood-opacity=".55"/></filter>
  </defs>
  <rect width="256" height="256" rx="58" fill="url(#bg)"/>
  <rect x="1" y="1" width="254" height="254" rx="57" fill="none" stroke="#fff" stroke-opacity=".22" stroke-width="2"/>
  <path d="M39 58c43-27 116-30 174 2" fill="none" stroke="#fff" stroke-opacity=".15" stroke-linecap="round" stroke-width="2"/>
  <g filter="url(#shadow)">
    <circle cx="128" cy="129" r="71" fill="#4a2721" fill-opacity=".52" stroke="#f7dbc8" stroke-opacity=".34" stroke-width="2"/>
    <circle cx="128" cy="125" r="62" fill="url(#metal)"/>
    <circle cx="128" cy="125" r="51" fill="#17141a"/>
    <circle cx="128" cy="125" r="45" fill="url(#lens)"/>
    <circle cx="128" cy="125" r="45" fill="url(#glass)"/>
    <circle cx="128" cy="125" r="34" fill="none" stroke="#fff" stroke-opacity=".18" stroke-width="1.5"/>
    <path d="M99 101c12-17 34-22 51-14" fill="none" stroke="#fff" stroke-opacity=".5" stroke-linecap="round" stroke-width="5"/>
    <circle cx="145" cy="143" r="9" fill="#8b7cff" fill-opacity=".32"/>
  </g>
  <path d="M62 193h132" stroke="#6e2c25" stroke-opacity=".55" stroke-linecap="round" stroke-width="7"/>
  <path d="m54 77 9-9M193 63l9 9M205 172l8 8" stroke="#fff6e9" stroke-linecap="round" stroke-width="3"/>
</svg>
